<svg width="34" height="16" viewBox="0 0 34 16" fill="none" xmlns="http://www.w3.org/2000/svg">
<g style="mix-blend-mode:soft-light">
<path fill-rule="evenodd" clip-rule="evenodd" d="M26.1708 10.8945C26.9828 11.064 27.6293 11.7401 27.722 12.6093C27.8371 13.6881 27.0559 14.6558 25.9771 14.7709C25.3073 14.8424 24.6802 14.5682 24.2735 14.0918C24.0222 14.3225 23.6976 14.4777 23.3324 14.5166C22.8836 14.5645 22.4577 14.4279 22.1302 14.1679C21.7946 14.5553 21.317 14.8214 20.7672 14.8801C20.0915 14.9521 19.4566 14.695 19.0222 14.2377C18.7645 14.4451 18.4463 14.5834 18.093 14.6211C17.1123 14.7257 16.2325 14.0155 16.1279 13.0349C16.0233 12.0542 16.7335 11.1744 17.7142 11.0698C17.9796 11.0415 18.2376 11.0729 18.4749 11.1531C18.6988 10.339 19.401 9.70465 20.2915 9.60967C20.7652 9.55914 21.219 9.66902 21.5988 9.89564C21.9856 9.25981 22.6538 8.80501 23.451 8.71997C24.8019 8.57587 26.0146 9.54781 26.1708 10.8945Z" fill="url(#paint0_linear_11_46)" fill-opacity="0.5"/>
</g>
<g style="mix-blend-mode:soft-light">
<path fill-rule="evenodd" clip-rule="evenodd" d="M25.0422 3.33192C25.2215 2.57887 25.8294 1.965 26.6398 1.81734C27.2639 1.70361 27.8732 1.89101 28.3183 2.2762C28.4832 2.16521 28.6731 2.08568 28.8812 2.04777C29.4977 1.93542 30.0947 2.22123 30.4077 2.72231C30.5245 2.67051 30.6492 2.63161 30.7804 2.6077C31.6721 2.44523 32.5266 3.03634 32.6891 3.92799C32.8515 4.81964 32.2604 5.67417 31.3688 5.83665C31.0902 5.8874 30.8153 5.86461 30.5639 5.78209C30.312 6.18904 29.8954 6.49185 29.3874 6.58441C28.7374 6.70286 28.1058 6.44633 27.7151 5.9687C27.5168 6.10541 27.287 6.20326 27.0347 6.24924C26.4763 6.351 25.9314 6.17599 25.5412 5.82177C25.3394 6.01048 25.0828 6.14536 24.7907 6.19858C23.9802 6.34628 23.2033 5.8089 23.0556 4.99831C22.9079 4.18772 23.4453 3.41087 24.2559 3.26317C24.5295 3.21332 24.7992 3.24151 25.0422 3.33192Z" fill="url(#paint1_linear_11_46)" fill-opacity="0.5"/>
</g>
<g style="mix-blend-mode:soft-light">
<path fill-rule="evenodd" clip-rule="evenodd" d="M9.08606 1.23999C8.50311 0.485726 7.58953 0 6.5625 0C4.80209 0 3.375 1.42709 3.375 3.1875C3.375 3.30653 3.38152 3.42404 3.39424 3.53968C3.11657 3.43329 2.81509 3.375 2.5 3.375C1.11929 3.375 0 4.49429 0 5.875C0 7.25571 1.11929 8.375 2.5 8.375C2.93028 8.375 3.33517 8.2663 3.68871 8.07486C4.19724 8.49652 4.85027 8.75 5.5625 8.75C6.33672 8.75 7.04098 8.45048 7.56573 7.96099C7.98311 8.37165 8.55572 8.625 9.1875 8.625C9.61899 8.625 10.0229 8.50682 10.3686 8.30106C10.8013 8.58491 11.3189 8.75 11.875 8.75C13.3938 8.75 14.625 7.51878 14.625 6C14.625 4.88993 13.9673 3.93348 13.0203 3.4991C12.6607 2.1327 11.4168 1.125 9.9375 1.125C9.64262 1.125 9.35709 1.16504 9.08606 1.23999Z" fill="url(#paint2_linear_11_46)" fill-opacity="0.5"/>
</g>
<defs>
<linearGradient id="paint0_linear_11_46" x1="17.8245" y1="12.2591" x2="27.1189" y2="13.4756" gradientUnits="userSpaceOnUse">
<stop stop-color="white"/>
<stop offset="0.645833" stop-color="white" stop-opacity="0.8"/>
<stop offset="1" stop-color="white" stop-opacity="0.2"/>
</linearGradient>
<linearGradient id="paint1_linear_11_46" x1="25.3376" y1="3.19966" x2="31.7335" y2="4.97808" gradientUnits="userSpaceOnUse">
<stop stop-color="white"/>
<stop offset="0.572917" stop-color="white" stop-opacity="0.8"/>
<stop offset="1" stop-color="white" stop-opacity="0.2"/>
</linearGradient>
<linearGradient id="paint2_linear_11_46" x1="1.1751" y1="4.89723" x2="13.1044" y2="6.84315" gradientUnits="userSpaceOnUse">
<stop stop-color="white"/>
<stop offset="0.612592" stop-color="white" stop-opacity="0.7"/>
<stop offset="1" stop-color="white" stop-opacity="0.3"/>
</linearGradient>
</defs>
</svg>
