<svg width="50" height="16" viewBox="0 0 50 16" fill="none" xmlns="http://www.w3.org/2000/svg">
<g style="mix-blend-mode:soft-light">
<path fill-rule="evenodd" clip-rule="evenodd" d="M48.2143 10.8945C49.0263 11.064 49.6728 11.7401 49.7655 12.6093C49.8806 13.6881 49.0994 14.6558 48.0207 14.7709C47.3508 14.8424 46.7237 14.5682 46.317 14.0918C46.0658 14.3225 45.7411 14.4777 45.3759 14.5166C44.9272 14.5645 44.5013 14.4279 44.1737 14.1679C43.8381 14.5553 43.3606 14.8214 42.8107 14.8801C42.135 14.9521 41.5001 14.695 41.0657 14.2377C40.8081 14.4451 40.4898 14.5834 40.1365 14.6211C39.1559 14.7257 38.2761 14.0155 38.1715 13.0349C38.0669 12.0542 38.777 11.1744 39.7577 11.0698C40.0231 11.0415 40.2811 11.0729 40.5184 11.1531C40.7423 10.339 41.4446 9.70466 42.335 9.60967C42.8087 9.55914 43.2625 9.66902 43.6424 9.89564C44.0292 9.25981 44.6973 8.80501 45.4945 8.71998C46.8454 8.57587 48.0581 9.54781 48.2143 10.8945Z" fill="url(#paint0_linear_11_46)" fill-opacity="0.5"/>
</g>
<g style="mix-blend-mode:soft-light">
<path fill-rule="evenodd" clip-rule="evenodd" d="M2.43246 4.98235C2.61171 4.2293 3.21963 3.61543 4.03001 3.46777C4.65415 3.35404 5.26346 3.54144 5.70853 3.92663C5.87338 3.81564 6.06334 3.73611 6.27136 3.6982C6.88796 3.58585 7.48495 3.87166 7.79792 4.37274C7.91469 4.32094 8.0394 4.28204 8.17062 4.25813C9.06227 4.09566 9.91681 4.68677 10.0793 5.57842C10.2418 6.47007 9.65064 7.3246 8.75899 7.48708C8.48043 7.53783 8.20549 7.51504 7.95415 7.43252C7.70222 7.83947 7.28558 8.14228 6.77763 8.23484C6.12757 8.35329 5.49598 8.09677 5.10529 7.61913C4.90704 7.75585 4.67726 7.85369 4.42496 7.89967C3.86647 8.00143 3.32161 7.82642 2.93144 7.4722C2.72958 7.66091 2.473 7.79579 2.18096 7.84901C1.37037 7.99671 0.593518 7.45933 0.445816 6.64874C0.298114 5.83815 0.835491 5.0613 1.64608 4.9136C1.91968 4.86375 2.18944 4.89194 2.43246 4.98235Z" fill="url(#paint1_linear_11_46)" fill-opacity="0.5"/>
</g>
<g style="mix-blend-mode:soft-light">
<path fill-rule="evenodd" clip-rule="evenodd" d="M29.8459 1.23999C29.263 0.485726 28.3494 0 27.3224 0C25.562 0 24.1349 1.42709 24.1349 3.1875C24.1349 3.30653 24.1414 3.42404 24.1541 3.53968C23.8764 3.43329 23.575 3.375 23.2599 3.375C21.8792 3.375 20.7599 4.49429 20.7599 5.875C20.7599 7.25571 21.8792 8.375 23.2599 8.375C23.6901 8.375 24.095 8.2663 24.4486 8.07486C24.9571 8.49652 25.6101 8.75 26.3224 8.75C27.0966 8.75 27.8008 8.45048 28.3256 7.96099C28.743 8.37165 29.3156 8.625 29.9474 8.625C30.3789 8.625 30.7828 8.50682 31.1284 8.30106C31.5611 8.58491 32.0787 8.75 32.6349 8.75C34.1536 8.75 35.3849 7.51878 35.3849 6C35.3849 4.88993 34.7271 3.93348 33.7801 3.4991C33.4206 2.1327 32.1767 1.125 30.6974 1.125C30.4025 1.125 30.117 1.16504 29.8459 1.23999Z" fill="url(#paint2_linear_11_46)" fill-opacity="0.5"/>
</g>
<defs>
<linearGradient id="paint0_linear_11_46" x1="39.6522" y1="13.8903" x2="48.0449" y2="11.0173" gradientUnits="userSpaceOnUse">
<stop stop-color="white"/>
<stop offset="0.645833" stop-color="white" stop-opacity="0.8"/>
<stop offset="1" stop-color="white" stop-opacity="0.4"/>
</linearGradient>
<linearGradient id="paint1_linear_11_46" x1="2.72783" y1="4.85009" x2="9.12367" y2="6.62851" gradientUnits="userSpaceOnUse">
<stop stop-color="white"/>
<stop offset="0.572917" stop-color="white" stop-opacity="0.8"/>
<stop offset="1" stop-color="white" stop-opacity="0.2"/>
</linearGradient>
<linearGradient id="paint2_linear_11_46" x1="26.5616" y1="1.4171" x2="29.7019" y2="7.58362" gradientUnits="userSpaceOnUse">
<stop stop-color="white"/>
<stop offset="0.612592" stop-color="white" stop-opacity="0.7"/>
<stop offset="1" stop-color="white" stop-opacity="0.3"/>
</linearGradient>
</defs>
</svg>
