<svg width="62" height="16" viewBox="0 0 62 16" fill="none" xmlns="http://www.w3.org/2000/svg">
<path d="M0.645201 9.07202L0.883741 9.53827L1.37663 9.45204L1.03117 9.82642L1.26971 10.2927L0.817659 10.0578L0.472195 10.4322L0.538277 9.91265L0.0862288 9.67779L0.579118 9.59156L0.645201 9.07202Z" fill="#F8FBF9"/>
<path d="M7.20111 5.11711L7.72283 5.0445L7.81499 4.52588L8.04526 4.99962L8.56698 4.92701L8.18758 5.29241L8.41786 5.76615L7.9531 5.51824L7.5737 5.88364L7.66587 5.36502L7.20111 5.11711Z" fill="#F8FBF9"/>
<path d="M13.0834 5.37494L13.4662 5.65385L13.8497 5.37597L13.7028 5.82623L14.0856 6.10514L13.6119 6.10451L13.465 6.55477L13.3192 6.10411L12.8456 6.10348L13.2291 5.8256L13.0834 5.37494Z" fill="#F8FBF9"/>
<path d="M20.1284 4.97617L20.5749 5.72162L21.4219 5.52728L20.8509 6.18233L21.2975 6.92779L20.4981 6.58718L19.9271 7.24224L20.004 6.37668L19.2045 6.03607L20.0515 5.84173L20.1284 4.97617Z" fill="#F8FBF9"/>
<path d="M23.6344 10.0761L23.8202 10.6479H24.4214L23.935 11.0013L24.1208 11.5731L23.6344 11.2197L23.148 11.5731L23.3338 11.0013L22.8474 10.6479H23.4486L23.6344 10.0761Z" fill="#F8FBF9"/>
<path d="M33.1061 6.56695L33.2259 7.18765L33.8533 7.26553L33.2999 7.57127L33.4197 8.19197L32.958 7.76022L32.4047 8.06595L32.6726 7.49338L32.2109 7.06164L32.8382 7.13952L33.1061 6.56695Z" fill="#F8FBF9"/>
<path d="M31.9519 0.0854647L32.1488 0.490596L32.595 0.428503L32.2705 0.740982L32.4675 1.14611L32.07 0.934104L31.7456 1.24658L31.8244 0.803075L31.4269 0.591066L31.8731 0.528972L31.9519 0.0854647Z" fill="#F8FBF9"/>
<path d="M60.7028 13.7753L60.5516 14.4264L61.1241 14.7714L60.4581 14.8288L60.3069 15.4799L60.0466 14.8643L59.3806 14.9216L59.8857 14.4838L59.6253 13.8681L60.1978 14.2132L60.7028 13.7753Z" fill="#F8FBF9"/>
<path d="M60.0475 5.42332L60.3971 5.15093L60.2461 4.73426L60.6132 4.98259L60.9628 4.7102L60.8401 5.13606L61.2072 5.38438L60.7642 5.39925L60.6415 5.82511L60.4905 5.40844L60.0475 5.42332Z" fill="#F8FBF9"/>
<path d="M55.4858 8.57423L55.6716 8.95649L56.0926 8.8979L55.7864 9.19274L55.9722 9.575L55.5972 9.37496L55.2911 9.6698L55.3654 9.25133L54.9904 9.05129L55.4114 8.9927L55.4858 8.57423Z" fill="#F8FBF9"/>
</svg>
