<?xml version="1.0" standalone="no"?>
<!DOCTYPE svg PUBLIC "-//W3C//DTD SVG 20010904//EN"
 "http://www.w3.org/TR/2001/REC-SVG-20010904/DTD/svg10.dtd">
<svg version="1.0" xmlns="http://www.w3.org/2000/svg"
 width="314.000000pt" height="314.000000pt" viewBox="0 0 314.000000 314.000000"
 preserveAspectRatio="xMidYMid meet">
<metadata>
Created by potrace 1.14, written by Peter Selinger 2001-2017
</metadata>
<g transform="translate(0.000000,314.000000) scale(0.100000,-0.100000)"
fill="#000000" stroke="none">
<path d="M125 3117 c-48 -19 -74 -41 -95 -83 -19 -38 -19 -70 -17 -1479 2
-1359 3 -1442 20 -1475 10 -19 30 -44 45 -55 27 -20 45 -20 1492 -23 1611 -3
1497 -7 1545 57 20 26 20 44 23 1476 1 798 0 1464 -3 1480 -7 40 -42 79 -89
99 -34 14 -180 16 -1464 15 -1066 0 -1435 -4 -1457 -12z"/>
</g>
</svg>
