<?xml version="1.0" standalone="no"?>
<!DOCTYPE svg PUBLIC "-//W3C//DTD SVG 20010904//EN"
 "http://www.w3.org/TR/2001/REC-SVG-20010904/DTD/svg10.dtd">
<svg version="1.0" xmlns="http://www.w3.org/2000/svg"
 width="260.000000pt" height="260.000000pt" viewBox="0 0 260.000000 260.000000"
 preserveAspectRatio="xMidYMid meet">
<metadata>
Created by potrace 1.14, written by Peter Selinger 2001-2017
</metadata>
<g transform="translate(0.000000,260.000000) scale(0.100000,-0.100000)"
fill="#000000" stroke="none">
<path d="M0 1300 l0 -1300 1300 0 1300 0 0 1300 0 1300 -1300 0 -1300 0 0
-1300z m2500 670 l0 -530 -417 357 c-230 196 -428 365 -439 375 -21 19 -22 19
-52 -20 l-31 -39 469 -402 470 -402 0 -605 0 -604 -1200 0 -1200 0 0 577 0
576 23 -20 c12 -11 182 -156 377 -323 195 -167 381 -326 414 -354 l59 -50 28
34 c16 19 29 37 29 41 0 4 -209 186 -465 404 l-465 398 0 558 0 559 1200 0
1200 0 0 -530z"/>
</g>
</svg>
