<svg viewBox="0 0 758 158" fill="none" xmlns="http://www.w3.org/2000/svg">
<path d="M154 154H14C9.28595 154 6.92893 154 5.46447 152.536C4 151.071 4 148.714 4 144V81.5M154 154V81.5M154 154H304M154 4H14C9.28595 4 6.92893 4 5.46447 5.46447C4 6.92893 4 9.28595 4 14V81.5M154 4V81.5M154 4H230.75M4 81.5L54 131.5M154 81.5L104 31.5M304.5 4L304 154M304.5 4H230.75M304.5 4H454M304 154V14C304 9.28595 304 6.92893 302.536 5.46447C301.071 4 298.714 4 294 4H230.75M304 154H379M230.75 4V54M454 4V79M454 4H604M454 154V79M454 154H379M454 154H604M454 79L404 29M379 154V104M604 4V154M604 4H679M604 154H744C748.714 154 751.071 154 752.536 152.536C754 151.071 754 148.714 754 144V14C754 9.28595 754 6.92893 752.536 5.46447C751.071 4 748.714 4 744 4H679M517.5 41L548.429 71.9289C551.762 75.2623 553.429 76.9289 553.429 79C553.429 81.0711 551.762 82.7377 548.429 86.0711L517.5 117M679 4V54" stroke="black" stroke-width="7" stroke-linecap="round"/>
</svg>
